{"title":"Transcendence.2014.HDRip.XviD.AC3-EVO","uid":10466389,"size":1872943987,"categoryP":"video","categoryS":"movies","magnet":"?xt=urn:btih:ff4ceabaf3b822ac20a13685f7162368fce21080&amp;dn=Transcendence.2014.HDRip.XviD.AC3-EVO&amp;tr=udp%3A%2F%2Ftracker.openbittorrent.com%3A80&amp;tr=udp%3A%2F%2Fopen.demonii.com%3A1337&amp;tr=udp%3A%2F%2Ftracker.coppersurfer.tk%3A6969&amp;tr=udp%3A%2F%2Fexodus.desync.com%3A6969","seeders":6,"leechers":1,"uploader":"xxxlavalxxx","files":-1,"time":1404201422,"description":"[IMG]http://i.imgur.com/8C9itmh.jpg[/IMG]\n\n\n &lt;a href=&quot;\nhttp://www.imdb.com/title/tt2209764/&quot; rel=&quot;nofollow&quot; target=&quot;_NEW&quot;&gt;\nhttp://www.imdb.com/title/tt2209764/&lt;/a&gt;\n\n\nAs Dr. Will Caster works toward his goal of creating an omniscient, sentient machine, a radical anti-technology organization fights to prevent him from establishing a world where computers can transcend the abilities of the human brain.\n\nDirector: Wally Pfister\nWriter: Jack Paglen\nStars: Johnny Depp, Rebecca Hall, Morgan Freeman\nGenres: Drama | Mystery | Sci-Fi | Thriller\nCountry: UK | China | USA\nLanguage: English\n\n\n\nFormat                                   : AVI\nFormat/Info                              : Audio Video Interleave\nFormat profile                           : OpenDML\nFormat settings                          : rec\nFile size                                : 1.71 GiB\nDuration                                 : 1h 59mn\nOverall bit rate                         : 2 054 Kbps\nWriting application                      : AVI-Mux GUI 1.17.8.3, Feb 16 201019:42:50\n\nVideo\nID                                       : 0\nFormat                                   : MPEG-4 Visual\nFormat profile                           : Advanced Simple@L5\nFormat settings, BVOP                    : 2\nFormat settings, QPel                    : No\nFormat settings, GMC                     : No warppoints\nFormat settings, Matrix                  : Default (H.263)\nMuxing mode                              : Packed bitstream\nCodec ID                                 : XVID\nCodec ID/Hint                            : XviD\nDuration                                 : 1h 59mn\nBit rate                                 : 1 665 Kbps\nWidth                                    : 720 pixels\nHeight                                   : 304 pixels\nDisplay aspect ratio                     : 2.35:1\nFrame rate                               : 23.976 fps\nColor space                              : YUV\nChroma subsampling                       : 4:2:0\nBit depth                                : 8 bits\nScan type                                : Progressive\nCompression mode                         : Lossy\nBits/(Pixel*Frame)                       : 0.317\nStream size                              : 1.39 GiB (81%)\nWriting library                          : XviD 65\n\nAudio\nID                                       : 1\nFormat                                   : AC-3\nFormat/Info                              : Audio Coding 3\nMode extension                           : CM (complete main)\nCodec ID                                 : 2000\nDuration                                 : 1h 59mn\nBit rate mode                            : Constant\nBit rate                                 : 384 Kbps\nChannel(s)                               : 6 channels\nChannel positions                        : Front: L C R, Side: L R, LFE\nSampling rate                            : 48.0 KHz\nBit depth                                : 16 bits\nCompression mode                         : Lossy\nStream size                              : 328 MiB (19%)\nAlignment                                : Aligned on interleaves\nInterleave, duration                     : 64 ms (1.53 video frames)\nInterleave, preload duration             : 192 ms\nTitle                                    : Transcendence.2014.HDRip.XviD.AC3-EVO\n\n\n\ninfo\n &lt;a href=&quot;\nhttp://i.imgur.com/rHb2EJs.png&quot; rel=&quot;nofollow&quot; target=&quot;_NEW&quot;&gt;\nhttp://i.imgur.com/rHb2EJs.png&lt;/a&gt;\n\n\nscreens\n &lt;a href=&quot;\nhttp://i.imgur.com/htUD1Mn.jpg&quot; rel=&quot;nofollow&quot; target=&quot;_NEW&quot;&gt;\nhttp://i.imgur.com/htUD1Mn.jpg&lt;/a&gt; &lt;a href=&quot;\nhttp://i.imgur.com/RYyblIG.jpg&quot; rel=&quot;nofollow&quot; target=&quot;_NEW&quot;&gt;\nhttp://i.imgur.com/RYyblIG.jpg&lt;/a&gt; &lt;a href=&quot;\nhttp://i.imgur.com/aaBxhoL.jpg&quot; rel=&quot;nofollow&quot; target=&quot;_NEW&quot;&gt;\nhttp://i.imgur.com/aaBxhoL.jpg&lt;/a&gt; &lt;a href=&quot;\nhttp://i.imgur.com/gnMXRBe.jpg&quot; rel=&quot;nofollow&quot; target=&quot;_NEW&quot;&gt;\nhttp://i.imgur.com/gnMXRBe.jpg&lt;/a&gt; &lt;a href=&quot;\nhttp://i.imgur.com/xesxCMO.jpg&quot; rel=&quot;nofollow&quot; target=&quot;_NEW&quot;&gt;\nhttp://i.imgur.com/xesxCMO.jpg&lt;/a&gt; &lt;a href=&quot;\nhttp://i.imgur.com/NhgYzr9.jpg&quot; rel=&quot;nofollow&quot; target=&quot;_NEW&quot;&gt;\nhttp://i.imgur.com/NhgYzr9.jpg&lt;/a&gt;","torrent":{"xt":"urn:btih:ff4ceabaf3b822ac20a13685f7162368fce21080","amp;dn":"Transcendence.2014.HDRip.XviD.AC3-EVO","amp;tr":["udp%3A%2F%2Ftracker.openbittorrent.com%3A80","udp%3A%2F%2Fopen.demonii.com%3A1337","udp%3A%2F%2Ftracker.coppersurfer.tk%3A6969","udp%3A%2F%2Fexodus.desync.com%3A6969"],"infoHash":"ff4ceabaf3b822ac20a13685f7162368fce21080","infoHashBuffer":{"type":"Buffer","data":[255,76,234,186,243,184,34,172,32,161,54,133,247,22,35,104,252,226,16,128]},"announce":[],"urlList":[]}}